<?xml version="1.0" encoding="iso-8859-1"?>
<!-- Generator: Adobe Illustrator 19.0.0, SVG Export Plug-In . SVG Version: 6.00 Build 0)  -->
<svg version="1.1" id="Capa_1" xmlns="http://www.w3.org/2000/svg" xmlns:xlink="http://www.w3.org/1999/xlink" x="0px" y="0px"
	 viewBox="0 0 512.002 512.002" style="enable-background:new 0 0 512.002 512.002;" xml:space="preserve">
<g>
	<g>
		<path style="fill:#30D5C8" d="M467.864,347.294l-23.544-13.593l13.837-5.896c13.666-5.823,20.011-21.59,14.189-35.256
			c-5.808-13.626-21.617-19.99-35.254-14.187l-50.99,21.725l-59.362-34.273c0.895-6.417,0.929-12.965,0-19.628l13.948-8.052
			c3.587-2.071,4.816-6.658,2.745-10.246c-2.071-3.588-6.66-4.814-10.246-2.745l-18.503,10.683c-2.828,1.633-4.275,4.909-3.576,8.1
			c1.753,8.003,1.753,16.144,0,24.149c-0.699,3.19,0.747,6.467,3.576,8.101l67.161,38.775c2.042,1.179,4.521,1.329,6.689,0.404
			l54.434-23.192c6.024-2.563,13.012,0.247,15.577,6.266c2.57,6.036-0.23,13.003-6.269,15.575l-27.653,11.783
			c-5.675,2.417-6.158,10.307-0.81,13.396l36.55,21.102c5.668,3.272,7.616,10.548,4.344,16.216
			c-3.206,5.552-10.427,7.688-16.215,4.345l-36.548-21.104c-5.349-3.091-11.94,1.28-11.196,7.399l3.623,29.841
			c0.383,3.147-0.484,6.255-2.439,8.752c-1.955,2.496-4.766,4.081-7.908,4.462c-6.579,0.809-12.439-3.923-13.221-10.354
			l-7.132-58.741c-0.284-2.341-1.653-4.412-3.695-5.591l-67.183-38.787c-2.829-1.633-6.39-1.247-8.805,0.954
			c-5.988,5.464-13.215,9.646-20.895,12.094c-3.11,0.991-5.223,3.881-5.223,7.146v77.545c0,2.358,1.109,4.579,2.994,5.996
			l47.306,35.547c5.243,3.94,6.302,11.375,2.357,16.621c-3.973,5.29-11.413,6.273-16.619,2.359l-24.031-18.059
			c-4.95-3.717-12.007-0.158-12.007,5.996v42.205c0,6.545-5.325,11.871-11.871,11.871c-6.545,0-11.87-5.325-11.87-11.871v-42.205
			c0-6.177-7.077-9.702-12.007-5.996l-24.031,18.059c-8.49,6.371-20.357-0.774-18.884-11.16c0.445-3.139,2.087-5.916,4.622-7.82
			l47.306-35.546c1.885-1.417,2.994-3.638,2.994-5.996v-77.546c0-3.265-2.112-6.154-5.223-7.146
			c-7.68-2.448-14.906-6.629-20.895-12.094c-2.415-2.202-5.975-2.588-8.806-0.954l-67.183,38.787
			c-2.042,1.179-3.411,3.25-3.695,5.591l-7.132,58.742c-0.78,6.428-6.622,11.147-13.216,10.354
			c-6.51-0.79-11.145-6.701-10.353-13.215l3.623-29.841c0.744-6.124-5.846-10.488-11.196-7.399l-36.55,21.103
			c-5.78,3.34-13.005,1.213-16.215-4.345c-3.272-5.668-1.323-12.943,4.345-16.216l36.549-21.102
			c5.34-3.083,4.873-10.976-0.81-13.396l-27.654-11.784c-6.036-2.571-8.839-9.536-6.268-15.574
			c2.573-6.036,9.536-8.838,15.574-6.267l54.438,23.193c2.167,0.924,4.646,0.774,6.689-0.404l67.161-38.775
			c2.829-1.633,4.275-4.909,3.576-8.101c-1.752-8-1.754-16.143,0-24.148c0.699-3.19-0.747-6.467-3.576-8.101l-67.161-38.775
			c-2.041-1.179-4.52-1.328-6.689-0.404l-54.438,23.193c-6.077,2.585-13.016-0.265-15.573-6.268
			c-2.566-6.021,0.246-13.009,6.267-15.575l27.653-11.782c5.684-2.422,6.15-10.313,0.811-13.396l-36.549-21.103
			c-5.682-3.279-7.625-10.532-4.345-16.215c3.278-5.68,10.533-7.628,16.216-4.345l36.551,21.103
			c5.361,3.094,11.938-1.291,11.196-7.399l-3.623-29.842c-0.792-6.511,3.838-12.424,10.355-13.214
			c6.495-0.792,12.422,3.825,13.214,10.354l7.132,58.741c0.284,2.341,1.653,4.412,3.695,5.591l67.183,38.787
			c2.831,1.634,6.391,1.248,8.806-0.954c5.987-5.462,13.213-9.645,20.896-12.094c3.11-0.991,5.222-3.881,5.222-7.146v-77.545
			c0-2.358-1.109-4.579-2.994-5.996l-47.306-35.546c-5.232-3.932-6.291-11.389-2.359-16.622c3.94-5.245,11.376-6.302,16.62-2.359
			l24.032,18.058c4.94,3.709,12.007,0.172,12.007-5.996V26.872c0-6.545,5.324-11.871,11.87-11.871
			c6.545,0,11.871,5.325,11.871,11.871v42.206c0,6.177,7.076,9.702,12.007,5.996l24.029-18.057
			c5.235-3.93,12.693-2.872,16.623,2.358c3.933,5.233,2.874,12.69-2.359,16.622l-47.305,35.546
			c-1.885,1.417-2.994,3.638-2.994,5.996v23.177c0,4.142,3.357,7.5,7.5,7.5s7.5-3.358,7.5-7.5v-19.431l44.311-33.296
			c11.846-8.902,14.241-25.781,5.339-37.626c-8.897-11.84-25.774-14.238-37.624-5.34l-12.025,9.037V26.872
			C282.874,12.055,270.819,0,256.002,0c-14.816,0-26.871,12.055-26.871,26.872v27.188l-12.029-9.037
			c-11.876-8.924-28.703-6.534-37.625,5.341c-8.9,11.846-6.504,28.725,5.34,37.625l44.312,33.295v68.55
			c-6.054,2.473-11.798,5.797-16.974,9.824l-59.387-34.287l-6.681-55.02c-1.79-14.763-15.2-25.239-29.914-23.438
			c-14.743,1.788-25.228,15.169-23.437,29.914l1.813,14.933l-23.543-13.593c-12.857-7.428-29.282-3.031-36.708,9.836
			c-7.425,12.861-3.029,29.281,9.836,36.706l23.543,13.593l-13.837,5.896c-13.632,5.808-19.996,21.623-14.189,35.254
			c5.828,13.68,21.614,20.003,35.253,14.189l50.992-21.725l59.361,34.273c-0.884,6.348-0.938,12.894,0.001,19.627l-59.362,34.273
			l-50.991-21.725c-13.659-5.821-29.431,0.516-35.254,14.188c-5.821,13.664,0.521,29.433,14.188,35.254l13.838,5.896l-23.543,13.593
			c-12.831,7.407-17.243,23.874-9.836,36.707c7.373,12.773,23.808,17.285,36.707,9.836l23.544-13.594l-1.813,14.932
			c-0.865,7.125,1.096,14.161,5.522,19.812c14.737,18.811,44.953,10.365,47.828-13.334l6.681-55.023l59.386-34.286
			c5.177,4.026,10.922,7.35,16.975,9.824v68.55l-44.311,33.296c-11.846,8.9-14.242,25.778-5.341,37.624
			c8.922,11.877,25.748,14.261,37.625,5.342l12.026-9.038v27.188c0,14.817,12.055,26.872,26.871,26.872
			c14.817,0,26.872-12.055,26.872-26.872v-27.187l12.025,9.036c11.981,9.006,28.815,6.388,37.625-5.34
			c8.923-11.875,6.534-28.702-5.34-37.625l-44.311-33.296v-68.55c6.053-2.474,11.798-5.797,16.975-9.824l59.386,34.286l6.681,55.022
			c2.887,23.798,33.165,32.051,47.828,13.335c4.427-5.65,6.388-12.687,5.522-19.812l-1.813-14.932l23.542,13.593
			c12.839,7.417,29.302,2.995,36.708-9.835C485.107,371.169,480.696,354.703,467.864,347.294z"/>
	</g>
</g>
<g>
	<g>
		<path style="fill:#30D5C8" d="M458.161,184.199l-13.837-5.895l23.544-13.594c12.862-7.426,17.262-23.843,9.835-36.706
			c-7.424-12.863-23.844-17.265-36.706-9.836l-23.544,13.593l1.813-14.932c1.787-14.743-8.692-28.128-23.436-29.917
			c-14.747-1.796-28.127,8.692-29.917,23.437l-6.681,55.021l-59.387,34.287c-5.176-4.025-10.92-7.35-16.974-9.824v-14.116
			c0-4.142-3.357-7.5-7.5-7.5s-7.5,3.358-7.5,7.5v19.365c0,3.265,2.111,6.154,5.222,7.146c7.683,2.449,14.908,6.631,20.896,12.094
			c2.413,2.2,5.973,2.588,8.806,0.954l67.183-38.787c2.042-1.179,3.411-3.25,3.695-5.591l7.132-58.741
			c0.784-6.467,6.643-11.147,13.216-10.354c6.51,0.79,11.145,6.7,10.353,13.215l-3.623,29.841c-0.343,2.821,0.939,5.594,3.31,7.161
			c2.371,1.568,5.425,1.659,7.886,0.238l36.553-21.103c5.68-3.281,12.931-1.338,16.213,4.346c3.281,5.682,1.338,12.935-4.344,16.215
			l-36.55,21.102c-2.461,1.421-3.908,4.111-3.736,6.948s1.932,5.333,4.547,6.447l27.653,11.782
			c6.021,2.566,8.833,9.554,6.268,15.575c-2.563,6.012-9.508,8.85-15.575,6.268l-54.436-23.193
			c-2.166-0.923-4.646-0.775-6.689,0.404l-18.346,10.592c-3.587,2.071-4.816,6.658-2.745,10.246
			c2.07,3.588,6.659,4.814,10.246,2.745l15.102-8.719l50.992,21.726c13.631,5.804,29.417-0.493,35.252-14.189
			C478.159,205.822,471.793,190.007,458.161,184.199z"/>
	</g>
</g>
<g>
	<g>
		<path style="fill:#30D5C8" d="M256,223.318c-18.022,0-32.683,14.661-32.683,32.683s14.661,32.684,32.683,32.684s32.684-14.662,32.684-32.684
			S274.022,223.318,256,223.318z M255.999,273.684c-9.75,0-17.682-7.932-17.682-17.683c0-9.75,7.932-17.682,17.682-17.682
			c9.751,0,17.683,7.932,17.683,17.682C273.682,265.751,265.75,273.684,255.999,273.684z"/>
	</g>
</g>
<g>
</g>
<g>
</g>
<g>
</g>
<g>
</g>
<g>
</g>
<g>
</g>
<g>
</g>
<g>
</g>
<g>
</g>
<g>
</g>
<g>
</g>
<g>
</g>
<g>
</g>
<g>
</g>
<g>
</g>
</svg>
